<svg width="399" height="402" viewBox="0 0 399 402" fill="none" xmlns="http://www.w3.org/2000/svg">
<path d="M202.755 0.768555C213.375 2.60628 216.826 5.82571 224.511 14.2686C247.894 46.9459 264.149 93.6036 271.375 129.769C273.844 160.386 275.298 174.076 275.511 169.269C282.157 180.586 287.448 187.381 301.011 200.75C321.413 231.578 343.921 277.153 348.967 314.885C348.991 315.713 348.949 316.463 348.967 316.848C349.47 327.155 345.527 336.222 341.431 339.425C334.616 345.006 330.313 347.045 321.333 347.769C303.046 347.418 276.632 338.088 218.833 315.375L199.74 302.614L181.15 315.375C120.476 338.583 96.541 346.286 78.1478 347.278C69.0255 346.787 64.8688 344.718 58.0499 339.916C53.1066 335.528 51.4816 330.743 50.0107 319.302C56.4741 281.042 75.5886 238.813 92.9267 208.766C111.721 187.536 125.771 169.489 125.011 169.269C127.657 126.296 132.244 105.486 135.406 100.266C151.215 57.7508 175.511 13.2686 175.511 13.2686C187.511 2.2715 190.859 2.41585 202.755 0.768555Z" fill="url(#paint0_linear_356_87)" fill-opacity="0.5"/>
<path d="M202.755 0.768555C213.375 2.60628 216.826 5.82571 224.511 14.2686C247.894 46.9459 264.149 93.6036 271.375 129.769C273.844 160.386 275.298 174.076 275.511 169.269C282.157 180.586 287.448 187.381 301.011 200.75C321.413 231.578 343.921 277.153 348.967 314.885C348.991 315.713 348.949 316.463 348.967 316.848C349.47 327.155 345.527 336.222 341.431 339.425C334.616 345.006 330.313 347.045 321.333 347.769C303.046 347.418 276.632 338.088 218.833 315.375L199.74 302.614L181.15 315.375C120.476 338.583 96.541 346.286 78.1478 347.278C69.0255 346.787 64.8688 344.718 58.0499 339.916C53.1066 335.528 51.4816 330.743 50.0107 319.302C56.4741 281.042 75.5886 238.813 92.9267 208.766C111.721 187.536 125.771 169.489 125.011 169.269C127.657 126.296 132.244 105.486 135.406 100.266C151.215 57.7508 175.511 13.2686 175.511 13.2686C187.511 2.2715 190.859 2.41585 202.755 0.768555Z" fill="url(#paint1_linear_356_87)" fill-opacity="0.5"/>
<path d="M202.755 0.768555C190.859 2.41585 187.511 2.2715 175.511 13.2686C175.511 13.2686 151.215 57.7508 135.406 100.266C132.244 105.486 127.657 126.296 125.011 169.269C125.771 169.489 111.721 187.536 92.9267 208.766C75.5886 238.813 56.4741 281.042 50.0107 319.302C51.4816 330.743 53.1066 335.528 58.0499 339.916C64.8688 344.718 69.0255 346.787 78.1478 347.278C96.541 346.286 120.476 338.583 181.15 315.375L199.74 302.614L218.833 315.375C276.632 338.088 303.046 347.418 321.333 347.769C330.313 347.045 334.616 345.006 341.431 339.425C345.527 336.222 349.47 327.155 348.967 316.848C348.949 316.463 348.991 315.713 348.967 314.885C343.921 277.153 321.413 231.578 301.011 200.75C287.448 187.381 282.157 180.586 275.511 169.269C275.298 174.076 273.844 160.386 271.375 129.769C264.149 93.6036 247.894 46.9459 224.511 14.2686C216.826 5.82571 213.375 2.60628 202.755 0.768555Z" stroke="#0098FF" stroke-width="10"/>
<path d="M342.341 63.7268C348.562 72.5285 348.731 77.2448 348.209 88.6493C341.685 128.298 320.242 172.81 299.817 203.518C279.941 226.937 271.302 237.657 274.848 234.403C271.56 247.11 270.507 255.657 270.667 274.701C263.34 310.934 247.087 359.096 224.013 389.373C223.444 389.977 222.885 390.477 222.627 390.763C215.703 398.415 206.508 402.049 201.346 401.424C192.58 400.562 188.093 398.967 181.224 393.137C168.526 379.974 156.415 354.714 131.535 297.815L127.03 275.296L104.856 271.201C45.5108 244.781 23.1257 233.33 9.40321 221.043C3.29129 214.253 1.80953 209.852 0.373877 201.636C-0.0267503 195.039 2.20194 190.504 9.24074 181.365C40.837 158.843 84.1935 142.446 117.689 133.417C145.988 131.66 168.681 128.807 168.298 128.114C200.521 99.5596 218.466 88.0658 224.39 86.6029C265.608 67.6687 314.225 53.3355 314.225 53.3355C330.487 54.0248 332.755 56.4916 342.341 63.7268Z" fill="url(#paint2_linear_356_87)" fill-opacity="0.5"/>
<path d="M342.341 63.7268C348.562 72.5285 348.731 77.2448 348.209 88.6493C341.685 128.298 320.242 172.81 299.817 203.518C279.941 226.937 271.302 237.657 274.848 234.403C271.56 247.11 270.507 255.657 270.667 274.701C263.34 310.934 247.087 359.096 224.013 389.373C223.444 389.977 222.885 390.477 222.627 390.763C215.703 398.415 206.508 402.049 201.346 401.424C192.58 400.562 188.093 398.967 181.224 393.137C168.526 379.974 156.415 354.714 131.535 297.815L127.03 275.296L104.856 271.201C45.5108 244.781 23.1257 233.33 9.40321 221.043C3.29129 214.253 1.80953 209.852 0.373877 201.636C-0.0267503 195.039 2.20194 190.504 9.24074 181.365C40.837 158.843 84.1935 142.446 117.689 133.417C145.988 131.66 168.681 128.807 168.298 128.114C200.521 99.5596 218.466 88.0658 224.39 86.6029C265.608 67.6687 314.225 53.3355 314.225 53.3355C330.487 54.0248 332.755 56.4916 342.341 63.7268Z" fill="url(#paint3_linear_356_87)" fill-opacity="0.5"/>
<path d="M342.341 63.7268C332.755 56.4916 330.487 54.0248 314.225 53.3355C314.225 53.3355 265.608 67.6687 224.39 86.6029C218.466 88.0658 200.521 99.5596 168.298 128.114C168.681 128.807 145.988 131.66 117.689 133.417C84.1935 142.446 40.837 158.843 9.24074 181.365C2.20194 190.504 -0.0267503 195.039 0.373877 201.636C1.80953 209.852 3.29129 214.253 9.40321 221.043C23.1257 233.33 45.5108 244.781 104.856 271.201L127.03 275.296L131.535 297.815C156.415 354.714 168.526 379.974 181.224 393.137C188.093 398.967 192.58 400.562 201.346 401.424C206.508 402.049 215.703 398.415 222.627 390.763C222.885 390.477 223.444 389.977 224.013 389.373C247.087 359.096 263.34 310.934 270.667 274.701C270.507 255.657 271.56 247.11 274.848 234.403C271.302 237.657 279.941 226.937 299.817 203.518C320.242 172.81 341.685 128.298 348.209 88.6493C348.731 77.2448 348.562 72.5285 342.341 63.7268Z" stroke="#389ADD" stroke-width="10"/>
<path d="M60.2337 59.153C68.9984 52.8801 73.7136 52.6829 85.1211 53.1377C124.807 59.4271 169.446 80.6069 200.273 100.85C223.81 120.588 234.58 129.163 231.306 125.636C244.031 128.849 252.585 129.852 271.627 129.579C307.903 136.692 356.161 152.66 386.573 175.555C387.18 176.12 387.684 176.676 387.971 176.933C395.664 183.812 399.353 192.985 398.758 198.151C397.948 206.922 396.379 211.418 390.59 218.321C377.502 231.097 352.314 243.357 295.562 268.572L273.071 273.21L269.107 295.408C243.038 354.908 231.72 377.361 219.513 391.155C212.76 397.307 208.368 398.815 200.161 400.299C193.565 400.739 189.017 398.537 179.837 391.552C157.129 360.09 140.476 316.831 131.25 283.389C129.326 255.101 126.338 232.425 125.648 232.812C96.9035 200.758 85.3039 182.882 83.8061 176.966C64.6287 135.861 50.0086 87.33 50.0086 87.33C50.6018 71.064 53.0552 68.781 60.2337 59.153Z" fill="url(#paint4_linear_356_87)" fill-opacity="0.5"/>
<path d="M60.2337 59.153C68.9984 52.8801 73.7136 52.6829 85.1211 53.1377C124.807 59.4271 169.446 80.6069 200.273 100.85C223.81 120.588 234.58 129.163 231.306 125.636C244.031 128.849 252.585 129.852 271.627 129.579C307.903 136.692 356.161 152.66 386.573 175.555C387.18 176.12 387.684 176.676 387.971 176.933C395.664 183.812 399.353 192.985 398.758 198.151C397.948 206.922 396.379 211.418 390.59 218.321C377.502 231.097 352.314 243.357 295.562 268.572L273.071 273.21L269.107 295.408C243.038 354.908 231.72 377.361 219.513 391.155C212.76 397.307 208.368 398.815 200.161 400.299C193.565 400.739 189.017 398.537 179.837 391.552C157.129 360.09 140.476 316.831 131.25 283.389C129.326 255.101 126.338 232.425 125.648 232.812C96.9035 200.758 85.3039 182.882 83.8061 176.966C64.6287 135.861 50.0086 87.33 50.0086 87.33C50.6018 71.064 53.0552 68.781 60.2337 59.153Z" fill="url(#paint5_linear_356_87)" fill-opacity="0.5"/>
<path d="M60.2337 59.153C53.0552 68.781 50.6018 71.064 50.0086 87.33C50.0086 87.33 64.6287 135.861 83.8061 176.966C85.3039 182.882 96.9035 200.758 125.648 232.812C126.338 232.425 129.326 255.101 131.25 283.389C140.476 316.831 157.129 360.09 179.837 391.552C189.017 398.537 193.565 400.739 200.161 400.299C208.368 398.815 212.76 397.307 219.513 391.155C231.72 377.361 243.038 354.908 269.107 295.408L273.071 273.21L295.562 268.572C352.314 243.357 377.502 231.097 390.59 218.321C396.379 211.418 397.948 206.922 398.758 198.151C399.353 192.985 395.664 183.812 387.971 176.933C387.684 176.676 387.18 176.12 386.573 175.555C356.161 152.66 307.903 136.692 271.627 129.579C252.585 129.852 244.031 128.849 231.306 125.636C234.58 129.163 223.81 120.588 200.273 100.85C169.446 80.6069 124.807 59.4271 85.1211 53.1377C73.7136 52.6829 68.9984 52.8801 60.2337 59.153Z" stroke="#D9D9D9" stroke-width="10"/>
<defs>
<linearGradient id="paint0_linear_356_87" x1="199.511" y1="0.768555" x2="199.511" y2="347.769" gradientUnits="userSpaceOnUse">
<stop stop-color="#0098FF"/>
<stop offset="1" stop-color="#005B99"/>
</linearGradient>
<linearGradient id="paint1_linear_356_87" x1="199.511" y1="0.768555" x2="199.511" y2="347.769" gradientUnits="userSpaceOnUse">
<stop stop-color="#0098FF"/>
<stop offset="1" stop-color="#005B99"/>
</linearGradient>
<linearGradient id="paint2_linear_356_87" x1="340.044" y1="61.4357" x2="94.978" y2="307.102" gradientUnits="userSpaceOnUse">
<stop stop-color="#389ADD"/>
<stop offset="1" stop-color="#66C1FF"/>
</linearGradient>
<linearGradient id="paint3_linear_356_87" x1="340.044" y1="61.4357" x2="94.978" y2="307.102" gradientUnits="userSpaceOnUse">
<stop stop-color="#389ADD"/>
<stop offset="1" stop-color="#66C1FF"/>
</linearGradient>
<linearGradient id="paint4_linear_356_87" x1="58.3325" y1="66.5" x2="365.833" y2="332" gradientUnits="userSpaceOnUse">
<stop stop-color="#D9D9D9"/>
<stop offset="1" stop-color="#ADF8FF"/>
</linearGradient>
<linearGradient id="paint5_linear_356_87" x1="58.3325" y1="66.5" x2="365.833" y2="332" gradientUnits="userSpaceOnUse">
<stop stop-color="#D9D9D9"/>
<stop offset="1" stop-color="#ADF8FF"/>
</linearGradient>
</defs>
</svg>
