<svg width="512" height="595" viewBox="0 0 512 595" fill="none" xmlns="http://www.w3.org/2000/svg">
<path d="M261.555 0C279.741 3.15114 285.65 8.67148 298.809 23.1484C338.85 79.1802 366.685 159.184 379.059 221.196C383.286 273.696 385.777 297.17 386.14 288.927C397.522 308.333 406.581 319.984 429.806 342.908C464.742 395.767 503.284 473.916 511.926 538.614C511.966 540.035 511.894 541.32 511.926 541.98C512.786 559.653 506.034 575.201 499.02 580.693C487.35 590.263 479.982 593.76 464.605 595C433.291 594.398 388.06 578.4 289.087 539.455L256.393 517.574L224.559 539.455C120.662 579.25 79.6772 592.457 48.1812 594.158C32.5604 593.317 25.4425 589.77 13.7661 581.535C5.30132 574.01 2.51874 565.806 0 546.188C11.0677 480.585 43.7989 408.175 73.4882 356.652C105.67 320.249 129.73 289.304 128.428 288.927C132.96 215.241 140.814 179.558 146.228 170.607C173.299 97.7073 214.903 21.4337 214.903 21.4337C235.451 2.57709 241.185 2.82461 261.555 0Z" fill="url(#paint0_linear_357_91)" fill-opacity="0.5"/>
<path d="M261.555 0C279.741 3.15114 285.65 8.67148 298.809 23.1484C338.85 79.1802 366.685 159.184 379.059 221.196C383.286 273.696 385.777 297.17 386.14 288.927C397.522 308.333 406.581 319.984 429.806 342.908C464.742 395.767 503.284 473.916 511.926 538.614C511.966 540.035 511.894 541.32 511.926 541.98C512.786 559.653 506.034 575.201 499.02 580.693C487.35 590.263 479.982 593.76 464.605 595C433.291 594.398 388.06 578.4 289.087 539.455L256.393 517.574L224.559 539.455C120.662 579.25 79.6772 592.457 48.1812 594.158C32.5604 593.317 25.4425 589.77 13.7661 581.535C5.30132 574.01 2.51874 565.806 0 546.188C11.0677 480.585 43.7989 408.175 73.4882 356.652C105.67 320.249 129.73 289.304 128.428 288.927C132.96 215.241 140.814 179.558 146.228 170.607C173.299 97.7073 214.903 21.4337 214.903 21.4337C235.451 2.57709 241.185 2.82461 261.555 0Z" fill="url(#paint1_linear_357_91)" fill-opacity="0.5"/>
<path d="M261.555 0C241.185 2.82461 235.451 2.57709 214.903 21.4337C214.903 21.4337 173.299 97.7073 146.228 170.607C140.814 179.558 132.96 215.241 128.428 288.927C129.73 289.304 105.67 320.249 73.4882 356.652C43.7989 408.175 11.0677 480.585 0 546.188C2.51874 565.806 5.30132 574.01 13.7661 581.535C25.4425 589.77 32.5604 593.317 48.1812 594.158C79.6772 592.457 120.662 579.25 224.559 539.455L256.393 517.574L289.087 539.455C388.06 578.4 433.291 594.398 464.605 595C479.982 593.76 487.35 590.263 499.02 580.693C506.034 575.201 512.786 559.653 511.926 541.98C511.894 541.32 511.966 540.035 511.926 538.614C503.284 473.916 464.742 395.767 429.806 342.908C406.581 319.984 397.522 308.333 386.14 288.927C385.777 297.17 383.286 273.696 379.059 221.196C366.685 159.184 338.85 79.1802 298.809 23.1484C285.65 8.67148 279.741 3.15114 261.555 0Z" stroke="#0098FF" stroke-width="10"/>
<defs>
<linearGradient id="paint0_linear_357_91" x1="256" y1="0" x2="256" y2="595" gradientUnits="userSpaceOnUse">
<stop stop-color="#0098FF"/>
<stop offset="1" stop-color="#005B99"/>
</linearGradient>
<linearGradient id="paint1_linear_357_91" x1="256" y1="0" x2="256" y2="595" gradientUnits="userSpaceOnUse">
<stop stop-color="#0098FF"/>
<stop offset="1" stop-color="#005B99"/>
</linearGradient>
</defs>
</svg>
