<svg width="513" height="595" viewBox="0 0 513 595" fill="none" xmlns="http://www.w3.org/2000/svg">
<path d="M261.646 0C279.839 3.14796 285.75 8.66274 298.913 23.1251C338.967 79.1004 366.813 159.024 379.191 220.973C383.419 273.42 385.911 296.871 386.275 288.635C397.66 308.022 406.722 319.662 429.955 342.563C464.903 395.369 503.459 473.439 512.104 538.071C512.144 539.491 512.071 540.774 512.104 541.434C512.964 559.089 506.21 574.621 499.193 580.108C487.519 589.668 480.149 593.161 464.766 594.4C433.441 593.799 388.195 577.817 289.188 538.912L256.482 517.053L224.637 538.912C120.704 578.666 79.7048 591.86 48.198 593.56C32.5717 592.719 25.4513 589.175 13.7709 580.949C5.30316 573.432 2.51962 565.236 0 545.638C11.0716 480.1 43.8141 407.763 73.5137 356.293C105.707 319.926 129.776 289.012 128.473 288.635C133.006 215.024 140.863 179.377 146.279 170.435C173.359 97.6089 214.978 21.4121 214.978 21.4121C235.533 2.57449 241.269 2.82177 261.646 0Z" fill="url(#paint0_linear_357_92)" fill-opacity="0.5"/>
<path d="M261.646 0C279.839 3.14796 285.75 8.66274 298.913 23.1251C338.967 79.1004 366.813 159.024 379.191 220.973C383.419 273.42 385.911 296.871 386.275 288.635C397.66 308.022 406.722 319.662 429.955 342.563C464.903 395.369 503.459 473.439 512.104 538.071C512.144 539.491 512.071 540.774 512.104 541.434C512.964 559.089 506.21 574.621 499.193 580.108C487.519 589.668 480.149 593.161 464.766 594.4C433.441 593.799 388.195 577.817 289.188 538.912L256.482 517.053L224.637 538.912C120.704 578.666 79.7048 591.86 48.198 593.56C32.5717 592.719 25.4513 589.175 13.7709 580.949C5.30316 573.432 2.51962 565.236 0 545.638C11.0716 480.1 43.8141 407.763 73.5137 356.293C105.707 319.926 129.776 289.012 128.473 288.635C133.006 215.024 140.863 179.377 146.279 170.435C173.359 97.6089 214.978 21.4121 214.978 21.4121C235.533 2.57449 241.269 2.82177 261.646 0Z" fill="url(#paint1_linear_357_92)" fill-opacity="0.5"/>
<path d="M261.646 0C241.269 2.82177 235.533 2.57449 214.978 21.4121C214.978 21.4121 173.359 97.6089 146.279 170.435C140.863 179.377 133.006 215.024 128.473 288.635C129.776 289.012 105.707 319.926 73.5137 356.293C43.8141 407.763 11.0716 480.1 0 545.638C2.51962 565.236 5.30316 573.432 13.7709 580.949C25.4513 589.175 32.5717 592.719 48.198 593.56C79.7048 591.86 120.704 578.666 224.637 538.912L256.482 517.053L289.188 538.912C388.195 577.817 433.441 593.799 464.766 594.4C480.149 593.161 487.519 589.668 499.193 580.108C506.21 574.621 512.964 559.089 512.104 541.434C512.071 540.774 512.144 539.491 512.104 538.071C503.459 473.439 464.903 395.369 429.955 342.563C406.722 319.662 397.66 308.022 386.275 288.635C385.911 296.871 383.419 273.42 379.191 220.973C366.813 159.024 338.967 79.1004 298.913 23.1251C285.75 8.66274 279.839 3.14796 261.646 0Z" stroke="#389ADD" stroke-width="10"/>
<defs>
<linearGradient id="paint0_linear_357_92" x1="256.089" y1="0" x2="256.089" y2="594.4" gradientUnits="userSpaceOnUse">
<stop stop-color="#389ADD"/>
<stop offset="1" stop-color="#66C1FF"/>
</linearGradient>
<linearGradient id="paint1_linear_357_92" x1="256.089" y1="0" x2="256.089" y2="594.4" gradientUnits="userSpaceOnUse">
<stop stop-color="#389ADD"/>
<stop offset="1" stop-color="#66C1FF"/>
</linearGradient>
</defs>
</svg>
